<svg width="500" height="275" viewBox="0 0 500 275" fill="none" xmlns="http://www.w3.org/2000/svg">
<path fill-rule="evenodd" clip-rule="evenodd" d="M250.675 125.331C250.689 125.151 255.985 125.392 266.02 126.016C267.841 126.02 269.817 125.991 271.936 125.874C274.055 125.757 276.316 125.552 278.696 125.171C280.554 124.874 282.479 124.473 284.409 123.84C285.974 123.324 287.544 122.672 288.953 121.717C291.234 120.178 293.359 118.121 294.938 115.571C295.62 114.453 296.196 113.263 296.373 112.025C296.52 111 296.379 109.902 295.828 109.091C294.131 106.455 292.463 103.671 290.755 100.787C289.047 97.9027 287.3 94.9191 285.408 91.9093C282.394 87.1214 278.884 82.294 274.352 78.1834C271.931 75.9854 269.366 73.8623 266.511 72.1273C263.82 70.5 260.867 69.1879 257.748 68.7693C251.381 67.8804 244.643 67.8552 237.682 68.311C230.285 68.7986 222.649 69.8587 214.811 71.3071C207.265 72.7017 199.541 74.4461 191.651 76.5004C183.761 78.5548 175.705 80.9192 167.49 83.5217C155.087 87.4527 142.335 91.9536 129.293 97.0214C125.483 98.5019 121.651 100.03 117.804 101.62C116.768 102.049 115.732 102.482 114.697 102.921C114.367 103.059 114.037 103.198 113.707 103.337C97.5469 112.491 80.718 122.018 63.2813 131.882C58.5841 133.923 53.8449 135.981 49.0647 138.056C45.1701 139.934 41.3285 141.942 37.6471 144.22C34.3719 146.262 31.2133 148.383 28.7444 151.058C24.3363 155.677 22.0997 162.302 20.3229 169.096C19.8183 171.064 19.7027 173.173 19.8733 175.286C20.0507 177.467 20.5547 179.66 21.2577 181.827C22.6859 186.232 24.9546 190.436 27.5926 194.482C29.771 197.811 32.2149 201.001 34.8588 204.056C35.6722 204.996 36.501 205.918 37.3503 206.816C37.5835 207.062 37.8159 207.305 38.0487 207.542C38.1097 207.604 38.1696 207.665 38.2284 207.724C38.2284 207.724 38.2284 207.724 38.2284 207.724C37.6073 208.156 36.9856 208.588 36.3631 209.019C36.367 209.023 36.3708 209.028 36.3747 209.032C36.3747 209.032 36.3747 209.032 36.3747 209.032C36.3761 209.033 36.3775 209.035 36.3788 209.037C31.9873 199.813 27.5303 190.486 23.0125 181.06C23.0125 181.059 23.0125 181.059 23.0125 181.059C23.0105 181.051 23.0084 181.043 23.0064 181.035C23.0063 181.035 23.0063 181.035 23.0063 181.035C23.0006 181.012 22.9948 180.988 22.9891 180.965C22.9671 180.877 22.9454 180.789 22.9239 180.702C22.8984 180.565 22.8745 180.43 22.8519 180.298C22.7706 179.823 22.6989 179.35 22.6349 178.879C22.6349 178.879 22.6349 178.879 22.6349 178.879C22.4351 177.417 22.3023 175.925 22.2695 174.41C22.2695 174.41 22.2695 174.41 22.2695 174.41C22.2199 172.767 22.3083 170.99 22.7584 169.161C22.9489 168.363 23.2718 167.506 23.7864 166.647C24.2477 165.86 24.9592 165.137 25.9164 164.584C30.4414 162.125 34.9901 159.653 39.5616 157.169C40.425 156.736 41.2827 156.571 42.0627 156.64C42.8995 156.709 43.6153 156.903 44.1988 157.158C44.1988 157.158 44.1989 157.158 44.1989 157.158C45.5803 157.756 46.7285 158.541 47.6959 159.334C48.9067 160.55 50.1195 161.768 51.3341 162.988C56.2466 180.026 61.2314 197.345 66.2824 214.916C98.411 213.95 131.335 212.972 164.904 211.98C164.802 212.103 164.701 212.23 164.601 212.358C164.303 212.729 164.005 213.1 163.708 213.472C163.689 213.396 163.67 213.322 163.652 213.248C163.58 212.959 163.509 212.671 163.439 212.384C163.173 211.297 162.913 210.209 162.657 209.121C161.747 205.25 160.886 201.36 160.064 197.456C158.365 189.389 156.821 181.242 155.523 173.014C154.925 169.226 154.381 165.435 153.899 161.641C153.072 155.137 152.43 148.608 152.124 142.063C152.124 142.063 152.124 142.063 152.124 142.063C151.847 136.195 151.824 130.262 152.445 124.344C152.706 121.844 153.098 119.324 153.713 116.823C153.713 116.823 153.713 116.823 153.713 116.823C154.231 114.702 154.94 112.558 155.97 110.494C155.97 110.494 155.97 110.494 155.97 110.494C156.827 108.755 157.993 107.062 159.555 105.625C159.555 105.625 159.555 105.625 159.555 105.625C161.017 104.299 162.804 103.338 164.764 102.867C175.3 100.385 185.766 97.9208 196.156 95.4754C197.806 95.1295 199.398 95.328 200.749 95.9133C202.347 96.6019 203.645 97.569 204.695 98.5844C207.701 101.44 209.861 104.819 211.722 108.094C214.265 112.51 216.406 117.073 218.377 121.634C220.624 126.83 222.653 132.074 224.56 137.319C228.154 147.201 231.333 157.122 234.263 167.003C235.239 170.293 236.187 173.582 237.101 176.871C237.28 177.895 237.46 178.917 237.639 179.939C242.179 183.061 246.697 186.167 251.192 189.259C251.179 189.254 251.164 189.249 251.149 189.245C251.106 189.231 251.064 189.217 251.021 189.203C250.852 189.149 250.683 189.095 250.515 189.04C250.651 189.025 250.787 189.009 250.923 188.994C251.454 188.933 251.985 188.872 252.516 188.811C254.535 188.579 256.549 188.348 258.56 188.118C265.809 187.286 273.005 186.462 280.145 185.644C302.606 183.07 324.515 180.564 345.803 178.133C368.579 175.532 390.644 173.017 411.911 170.594C419.394 169.741 426.777 168.9 434.057 168.068C436.202 167.823 438.338 167.579 440.463 167.334C441.062 167.265 441.66 167.196 442.255 167.127C442.427 167.106 442.597 167.087 442.765 167.067C442.855 167.056 442.927 167.048 442.982 167.04C442.851 167.09 442.919 167.03 443.199 166.941C443.547 166.797 443.913 166.619 444.302 166.425C444.302 166.425 444.302 166.425 444.302 166.425C445.517 165.816 446.718 165.132 447.926 164.423C451.602 162.263 455.136 159.919 458.549 157.461C462.653 154.502 466.555 151.392 470.103 148.019C473.37 144.89 476.385 141.652 478.385 137.964C480.544 134.02 481.991 129.743 482.603 125.412C483.198 121.059 482.966 116.637 481.405 112.821C480.765 111.121 479.355 109.625 477.832 108.136C476.069 106.46 474.097 104.984 472.052 103.593C470.31 102.411 468.521 101.313 466.704 100.285C466.704 100.285 466.704 100.285 466.704 100.285C466.138 99.9645 465.572 99.6525 465.005 99.3509C465.005 99.3509 465.005 99.3509 465.005 99.3509C465.005 99.3509 465.005 99.3509 465.005 99.3509C464.849 99.2679 464.694 99.1863 464.539 99.1066C464.63 99.1166 464.721 99.1272 464.813 99.1382C464.802 99.1326 464.791 99.1269 464.78 99.1213C464.776 99.1193 464.772 99.1173 464.768 99.1154C456.971 99.0668 449.376 99.0205 441.99 98.9763C438.928 96.2649 435.254 94.2703 431.512 92.5328C426.705 90.2952 421.733 88.6421 416.803 87.2367C416.803 87.2367 416.803 87.2367 416.803 87.2367C409.8 85.2421 402.908 83.7691 396.212 82.5982C389.516 81.4273 383.016 80.559 376.773 79.8346C367.558 78.7669 358.892 78.0664 350.831 77.5869C342.771 77.1074 335.315 76.8494 328.509 76.7083C312.515 76.3772 300.11 76.7069 291.71 76.998C287.51 77.1435 284.309 77.2816 282.157 77.3546C280.005 77.4276 278.9 77.4348 278.894 77.3524C278.888 77.2699 279.979 77.0997 282.122 76.8657C284.265 76.6317 287.459 76.3346 291.658 76.0324C300.057 75.4279 312.484 74.7937 328.53 74.8361C335.359 74.854 342.844 74.9918 350.947 75.3553C359.05 75.7188 367.769 76.3074 377.054 77.2688C383.338 77.9184 389.898 78.7185 396.679 79.8307C403.461 80.9429 410.465 82.3666 417.614 84.3247C417.614 84.3247 417.614 84.3247 417.614 84.3247C422.65 85.703 427.787 87.363 432.833 89.6509C436.395 91.2681 439.986 93.2632 443.082 96.1219C450.372 96.0321 457.861 95.9388 465.542 95.8421C465.546 95.8442 465.55 95.8462 465.554 95.8478C465.565 95.8533 465.576 95.8586 465.586 95.8641C465.763 95.9181 465.939 95.972 466.114 96.0255C466.114 96.0255 466.114 96.0255 466.114 96.0255C466.284 96.1113 466.451 96.1976 466.616 96.284C466.616 96.284 466.616 96.284 466.616 96.284C466.616 96.284 466.616 96.284 466.616 96.284C467.217 96.5976 467.813 96.9199 468.404 97.2487C468.404 97.2487 468.404 97.2487 468.404 97.2487C470.301 98.3036 472.179 99.4371 474.018 100.665C476.172 102.099 478.305 103.679 480.285 105.525C481.998 107.08 483.708 108.981 484.766 111.452C486.615 116.022 486.964 121.078 486.29 125.923C485.641 130.723 484.084 135.441 481.733 139.789C479.426 144.021 476.187 147.601 472.794 150.839C469.1 154.388 465.079 157.636 460.886 160.69C457.403 163.23 453.778 165.662 449.99 167.917C448.752 168.655 447.476 169.387 446.141 170.067C446.141 170.067 446.141 170.067 446.141 170.067C445.719 170.283 445.267 170.504 444.776 170.712C444.586 170.819 444.18 170.973 443.543 171.094C443.432 171.109 443.338 171.12 443.262 171.13C443.087 171.151 442.914 171.173 442.742 171.194C442.142 171.267 441.543 171.339 440.944 171.412C438.817 171.668 436.682 171.923 434.538 172.179C427.26 173.048 419.88 173.925 412.402 174.812C391.145 177.335 369.091 179.941 346.324 182.625C325.045 185.133 303.144 187.708 280.69 190.342C273.552 191.18 266.358 192.023 259.111 192.872C257.101 193.108 255.087 193.344 253.069 193.58C252.538 193.642 252.008 193.704 251.477 193.767C251.34 193.782 251.204 193.798 251.068 193.814C250.83 193.768 250.592 193.722 250.355 193.675C250.294 193.664 250.234 193.652 250.174 193.64C250.155 193.636 250.135 193.632 250.115 193.628C244.756 189.969 239.363 186.286 233.937 182.579C233.434 181.109 232.931 179.638 232.426 178.165C231.515 174.911 230.569 171.654 229.595 168.394C226.665 158.588 223.499 148.766 219.932 139.009C218.039 133.83 216.037 128.68 213.833 123.606C211.892 119.142 209.829 114.75 207.417 110.584C205.577 107.451 203.715 104.456 201.29 102.229C200.448 101.474 199.652 100.832 198.851 100.532C198.268 100.321 197.69 100.205 197.303 100.34C186.915 102.796 176.452 105.27 165.917 107.76C164.834 108.007 163.786 108.582 162.925 109.358C162.925 109.358 162.925 109.358 162.925 109.358C161.943 110.221 161.151 111.425 160.462 112.758C160.462 112.758 160.462 112.758 160.462 112.758C159.647 114.364 159.07 116.156 158.6 118.033C158.6 118.033 158.599 118.033 158.599 118.033C158.052 120.242 157.702 122.535 157.454 124.873C156.866 130.424 156.898 136.101 157.162 141.828C157.162 141.828 157.162 141.828 157.162 141.828C157.46 148.199 158.092 154.594 158.906 161.005C159.381 164.745 159.918 168.485 160.509 172.227C161.792 180.353 163.319 188.416 165.001 196.417C165.815 200.287 166.667 204.138 167.565 207.967C167.818 209.044 168.073 210.117 168.335 211.186C168.404 211.468 168.473 211.749 168.543 212.029C168.56 212.101 168.578 212.172 168.596 212.243C168.308 212.651 168.02 213.059 167.731 213.467C167.633 213.604 167.535 213.742 167.436 213.879C132.207 215.329 97.6609 216.74 64.0041 218.104C58.3617 200.286 52.8067 182.724 47.3513 165.449C46.41 164.627 45.4699 163.805 44.5307 162.984C43.7517 162.388 43.0501 161.877 42.3709 161.632C42.3709 161.632 42.3709 161.632 42.3709 161.632C42.0793 161.529 41.8753 161.45 41.7693 161.461C41.7197 161.479 41.7257 161.452 41.8589 161.415C37.2818 163.889 32.7275 166.35 28.1965 168.798C28.1236 168.803 28.0061 168.963 27.8506 169.172C27.6623 169.446 27.5268 169.859 27.3861 170.352C27.0661 171.523 27.0232 172.872 27.0349 174.317C27.0349 174.317 27.0349 174.317 27.0349 174.317C27.0578 175.614 27.1731 176.926 27.3478 178.245C27.3479 178.245 27.3479 178.245 27.3479 178.245C27.4043 178.668 27.4666 179.087 27.5365 179.5C27.556 179.616 27.5756 179.729 27.5958 179.839C27.5864 179.817 27.5769 179.795 27.5674 179.772C27.565 179.766 27.5625 179.759 27.56 179.753C27.56 179.753 27.56 179.753 27.56 179.753C27.5591 179.751 27.5582 179.749 27.5573 179.747C30.6981 189.898 33.8147 199.931 36.907 209.837C36.9054 209.836 36.9037 209.835 36.9021 209.833C36.9021 209.833 36.902 209.833 36.902 209.833C36.8974 209.829 36.8928 209.825 36.8881 209.821C36.2323 210.218 35.5773 210.617 34.923 211.015C34.923 211.015 34.923 211.015 34.923 211.015C34.8525 210.944 34.7837 210.874 34.7165 210.805C34.4597 210.542 34.2084 210.278 33.9615 210.015C33.0614 209.057 32.1901 208.082 31.3419 207.096C28.5849 203.894 26.0269 200.53 23.7336 197.003C20.9481 192.735 18.5199 188.156 16.9214 183.236C16.1317 180.803 15.5671 178.262 15.3541 175.654C15.1452 173.112 15.3119 170.508 15.9537 167.979C17.7101 160.912 20.3416 153.633 25.5134 148.026C28.4758 144.903 31.9431 142.552 35.3538 140.484C39.2508 138.103 43.2592 136.029 47.2752 134.118C52.0224 132.085 56.7298 130.069 61.3964 128.071C78.8781 118.288 95.7548 108.849 111.966 99.7883C112.364 99.6183 112.763 99.4485 113.16 99.2788C114.213 98.8394 115.265 98.4076 116.314 97.9811C120.2 96.4007 124.068 94.8853 127.908 93.4199C141.053 88.4039 153.911 83.9614 166.419 80.0952C174.699 77.5352 182.833 75.2148 190.808 73.2064C198.784 71.1981 206.601 69.5017 214.243 68.1572C222.183 66.7601 229.952 65.7574 237.5 65.3325C244.595 64.9301 251.536 65.0369 258.143 66.0258C261.759 66.5819 265.034 68.0566 267.906 69.8646C270.95 71.7735 273.616 74.0255 276.068 76.3168C280.787 80.7263 284.36 85.7623 287.361 90.6994C289.235 93.7773 290.947 96.8013 292.608 99.7068C294.269 102.612 295.878 105.399 297.509 108.026C298.322 109.371 298.524 110.923 298.273 112.336C297.987 113.937 297.297 115.344 296.5 116.562C294.711 119.332 292.367 121.515 289.873 123.118C288.257 124.154 286.543 124.831 284.878 125.332C282.826 125.953 280.817 126.324 278.903 126.58C276.444 126.909 274.127 127.056 271.967 127.114C269.808 127.172 267.805 127.139 265.969 127.072C255.93 126.106 250.661 125.512 250.675 125.331L250.675 125.331Z" fill="#ffffff"/>
<path fill-rule="evenodd" clip-rule="evenodd" d="M464.056 93.9581C463.626 94.0534 462.424 90.5406 460.674 84.3082C459.904 81.9474 458.985 79.2167 457.724 76.2843C457.253 75.2003 456.756 74.0915 456.186 73.0096C455.616 71.9276 454.973 70.8724 454.193 69.9132C452.423 67.7138 450.252 65.5584 447.693 63.7503C445.134 61.9422 442.186 60.4815 438.928 59.7947C434.035 58.7085 428.74 58.1777 423.142 58.0984C417.543 58.0191 411.641 58.3887 405.59 58.9237C405.15 58.9636 404.71 59.0047 404.268 59.0471C397.686 59.6797 391.305 60.5596 385.206 61.5517C379.108 62.5439 373.292 63.6472 367.842 64.7456C367.842 64.7456 367.842 64.7456 367.842 64.7456C355.189 67.2974 344.527 69.8661 336.85 71.6766C332.806 72.6304 329.593 73.3788 327.356 73.8326C326.216 74.0638 325.33 74.2184 324.717 74.2855C324.408 74.3193 324.169 74.3309 324.001 74.3187C323.904 74.2721 323.834 74.2495 323.788 74.2362C323.762 74.2194 323.744 74.2124 323.732 74.2097C323.727 74.2085 323.722 74.208 323.72 74.2079C323.716 74.2083 323.716 74.2083 323.716 74.2083C323.716 74.2083 323.716 74.2083 323.715 74.2073C323.721 74.2045 323.725 74.202 323.728 74.1974C323.736 74.1884 323.746 74.1721 323.758 74.143C323.787 74.1051 323.83 74.0458 323.882 73.9509C324.011 73.8426 324.213 73.7116 324.486 73.5597C325.026 73.2583 325.843 72.8739 326.919 72.4193C329.029 71.5271 332.135 70.3628 336.092 69.027C343.603 66.4909 354.19 63.3123 366.882 60.3388C366.882 60.3388 366.882 60.3388 366.882 60.3388C372.345 59.0579 378.204 57.807 384.382 56.7088C390.56 55.6106 397.056 54.6661 403.784 54.0175C404.235 53.974 404.685 53.932 405.135 53.8915C411.283 53.3248 417.387 52.9975 423.253 53.1813C429.119 53.3652 434.744 54.0624 439.97 55.3575C443.895 56.3611 447.309 58.1865 450.175 60.3728C453.041 62.5592 455.358 65.1061 457.167 67.6788C458.054 68.9424 458.742 70.2273 459.312 71.4831C459.882 72.7388 460.333 73.9655 460.726 75.1288C461.827 78.3408 462.522 81.2457 463.036 83.7335C464.092 90.1671 464.486 93.8623 464.056 93.9577L464.056 93.9581Z" fill="#ffffff"/>
<path fill-rule="evenodd" clip-rule="evenodd" d="M237.856 178.524C237.752 177.834 250.947 175.224 272.353 171.56C293.759 167.897 323.377 163.181 356.115 158.251C388.34 153.398 417.611 149.23 439.055 146.401C452.502 144.627 462.866 143.373 468.953 142.805C471.2 142.596 472.862 142.48 473.883 142.469C474.299 142.464 474.609 142.477 474.808 142.508C474.901 142.557 474.969 142.582 475.012 142.598C475.034 142.614 475.049 142.621 475.059 142.624C475.064 142.626 475.068 142.626 475.07 142.627C475.074 142.627 475.074 142.627 475.074 142.627C475.074 142.627 475.074 142.627 475.074 142.627C475.068 142.629 475.065 142.63 475.061 142.633C475.053 142.64 475.04 142.652 475.025 142.674C474.989 142.704 474.934 142.75 474.861 142.827C474.683 142.921 474.393 143.033 473.996 143.161C473.023 143.475 471.403 143.885 469.201 144.377C463.231 145.71 452.964 147.649 439.601 149.974C418.289 153.683 389.095 158.394 356.867 163.247C324.126 168.178 294.423 172.334 272.881 175.093C251.34 177.852 237.959 179.213 237.855 178.523L237.856 178.524Z" fill="#ffffff"/>
<path fill-rule="evenodd" clip-rule="evenodd" d="M478.534 114.603C478.53 114.61 478.524 114.615 478.515 114.619C478.506 114.624 478.494 114.626 478.48 114.627C478.451 114.63 478.411 114.628 478.361 114.62C478.26 114.605 478.116 114.571 477.926 114.52C477.541 114.416 476.974 114.246 476.218 114.033C475.429 113.811 474.44 113.541 473.25 113.257C472.06 112.973 470.667 112.675 469.078 112.375C465.537 111.708 461.045 111.034 455.659 110.596C452.967 110.377 450.051 110.215 446.926 110.12C443.801 110.026 440.466 109.999 436.942 110.03C427.633 110.113 417.019 110.586 405.331 111.684C393.642 112.781 380.879 114.506 367.273 116.935C353.666 119.365 339.216 122.499 324.154 126.222C309.092 129.945 293.419 134.255 277.367 138.85C277.367 138.85 277.367 138.849 277.367 138.849C278.035 138.525 278.39 138.264 278.451 137.958C278.451 137.958 278.451 137.958 278.451 137.958C278.486 137.769 278.522 137.817 278.476 138.057C278.476 138.057 278.476 138.057 278.476 138.057C278.426 138.812 278.634 139.743 278.853 140.843C279.196 142.429 279.643 144.018 280.15 145.618C280.652 147.203 281.211 148.792 281.781 150.391C282.935 153.617 284.175 156.802 285.458 159.957C285.458 159.957 285.458 159.957 285.458 159.957C285.885 161.008 286.317 162.054 286.754 163.093C286.754 163.093 286.754 163.093 286.754 163.093C286.877 163.386 287 163.677 287.124 163.968C287.157 164.044 287.189 164.121 287.222 164.196C287.222 164.196 287.222 164.196 287.222 164.196C286.784 163.967 286.347 163.738 285.909 163.508C285.911 163.513 285.913 163.518 285.916 163.524C285.916 163.526 285.917 163.527 285.918 163.529C312.851 159.432 338.312 155.604 361.379 152.199C384.445 148.795 405.118 145.813 422.449 143.395C439.78 140.977 453.769 139.122 463.444 137.957C473.119 136.791 478.478 136.315 478.527 136.64C478.575 136.965 473.303 138.061 463.64 139.756C453.976 141.451 439.92 143.744 422.422 146.477C404.925 149.211 383.985 152.384 360.582 155.852C337.178 159.321 311.31 163.085 283.979 167.014C283.978 167.012 283.977 167.011 283.977 167.009C283.974 167.004 283.972 166.999 283.97 166.993C283.515 166.724 283.06 166.454 282.605 166.185C282.605 166.185 282.605 166.185 282.605 166.185C282.571 166.105 282.536 166.025 282.502 165.946C282.374 165.647 282.247 165.348 282.121 165.05C282.121 165.05 282.121 165.05 282.121 165.05C281.673 163.991 281.231 162.927 280.795 161.859C280.795 161.859 280.795 161.859 280.795 161.859C279.488 158.659 278.218 155.408 277.03 152.095C276.448 150.479 275.868 148.831 275.335 147.141C274.798 145.436 274.312 143.697 273.922 141.918C273.65 140.768 273.405 139.418 273.434 137.882C273.434 137.882 273.434 137.882 273.434 137.882C273.412 137.408 273.523 136.729 273.85 135.889C273.85 135.889 273.85 135.889 273.85 135.889C274.115 135.126 274.833 134.459 275.981 133.997C275.981 133.997 275.981 133.997 275.981 133.997C292.069 129.396 307.826 125.125 323.001 121.482C338.176 117.84 352.768 114.828 366.522 112.559C380.276 110.29 393.191 108.763 405.014 107.897C416.837 107.03 427.568 106.82 436.961 107.027C440.519 107.105 443.893 107.248 447.057 107.464C450.22 107.68 453.173 107.969 455.898 108.318C461.346 109.017 465.876 109.963 469.411 110.906C472.587 111.753 474.96 112.631 476.478 113.328C477.204 113.662 477.74 113.955 478.08 114.177C478.248 114.287 478.369 114.379 478.444 114.451C478.482 114.487 478.508 114.518 478.523 114.543C478.53 114.556 478.535 114.567 478.537 114.577C478.539 114.587 478.538 114.595 478.534 114.602L478.534 114.603Z" fill="#ffffff"/>
<path fill-rule="evenodd" clip-rule="evenodd" d="M317.56 91.588C317.187 91.3925 317.32 90.2922 317.975 88.4403C318.629 86.5883 319.806 83.984 321.41 80.8529C325.626 80.2897 331.022 79.7292 336.887 79.2681C340.178 79.0093 343.334 78.8041 346.221 78.6555C349.107 78.507 351.722 78.4151 353.953 78.3816C355.745 80.8948 357.071 82.9819 357.845 84.4861C358.62 85.9903 358.844 86.9122 358.532 87.1408C358.22 87.3693 357.418 86.8873 356.359 85.8829C355.3 84.8785 353.985 83.3523 352.548 81.447C350.413 81.758 348.025 82.0609 345.459 82.3425C342.894 82.6241 340.152 82.8842 337.287 83.1113C332.182 83.5158 327.426 83.7562 323.383 83.8447C322.058 86.3101 320.816 88.3254 319.784 89.6939C318.753 91.0624 317.932 91.7835 317.56 91.588Z" fill="#ffffff"/>
<path fill-rule="evenodd" clip-rule="evenodd" d="M242.816 99.4857C242.923 99.4774 243.036 99.6247 243.173 99.9044C243.309 100.184 243.469 100.596 243.691 101.116C243.913 101.635 244.199 102.263 244.588 102.97C244.978 103.677 245.472 104.464 246.091 105.29C246.68 106.073 247.383 106.888 248.218 107.704C249.053 108.52 250.02 109.336 251.114 110.118C252.865 111.361 254.937 112.512 257.296 113.279C259.21 113.888 261.289 114.283 263.321 114.052C265.171 113.876 267.093 113.153 268.956 112.091C270.822 111.013 272.58 109.562 274.144 107.833C275.615 106.193 276.897 104.328 277.794 102.279C278.58 100.448 279.104 98.5076 279.032 96.6351C279.025 96.1931 278.986 95.746 278.917 95.2957C278.692 93.8313 278.162 92.3646 277.482 90.9632C276.472 88.9227 275.093 87.0825 273.524 85.4853C271.881 83.828 270.061 82.4574 268.138 81.5006C266.252 80.5789 264.315 80.0074 262.508 80.0332C260.298 80.0132 258.104 80.7543 256.135 81.724C253.701 82.942 251.652 84.5769 249.968 86.2577C248.911 87.319 248.001 88.3984 247.234 89.4545C246.468 90.5106 245.844 91.5434 245.339 92.5179C244.76 93.4735 244.316 94.3694 243.986 95.1743C243.655 95.9791 243.437 96.6936 243.289 97.2978C242.993 98.5063 242.957 99.2768 242.869 99.4816C242.817 99.4858 242.816 99.4858 242.816 99.4858C242.816 99.4858 242.816 99.4858 242.764 99.49C242.704 99.394 242.63 99.1486 242.557 98.7541C242.485 98.3596 242.415 97.8155 242.386 97.1305C242.357 96.4455 242.37 95.619 242.468 94.6763C242.565 93.7336 242.748 92.6741 243.05 91.5481C243.449 90.3845 243.993 89.1364 244.714 87.8508C245.434 86.5651 246.331 85.242 247.417 83.9404C249.136 81.8683 251.358 79.8026 254.183 78.1468C256.464 76.7946 259.228 75.7304 262.376 75.5535C265.05 75.448 267.745 76.0712 270.184 77.2219C272.666 78.3754 274.977 80.0051 276.995 81.9855C278.94 83.8783 280.665 86.1298 281.974 88.7032C282.883 90.4648 283.578 92.4315 283.896 94.5397C283.994 95.1878 284.055 95.8451 284.077 96.509C284.123 99.3424 283.43 102.005 282.351 104.329C281.161 106.929 279.543 109.209 277.711 111.139C275.78 113.188 273.567 114.889 271.199 116.152C268.84 117.425 266.244 118.224 263.638 118.375C260.776 118.503 258.172 117.87 255.944 116.953C253.193 115.834 250.909 114.303 249.071 112.696C247.917 111.692 246.927 110.642 246.101 109.601C245.275 108.56 244.613 107.527 244.094 106.549C243.541 105.514 243.157 104.528 242.905 103.653C242.654 102.778 242.533 102.014 242.491 101.394C242.449 100.774 242.483 100.298 242.549 99.9782C242.615 99.6583 242.71 99.4941 242.816 99.4859L242.816 99.4857Z" fill="#ffffff"/>
<path fill-rule="evenodd" clip-rule="evenodd" d="M442.681 63.2502C442.693 63.364 442.585 63.4862 442.382 63.6282C442.179 63.7703 441.881 63.9335 441.513 64.1492C441.145 64.365 440.707 64.6348 440.224 64.989C439.741 65.3432 439.213 65.7834 438.674 66.316C438.152 66.8358 437.623 67.4486 437.109 68.1633C436.596 68.8779 436.098 69.695 435.633 70.6028C434.883 72.0848 434.244 73.7994 433.903 75.6839C433.64 77.2127 433.533 78.8144 433.88 80.288C434.09 81.3893 434.618 82.4746 435.384 83.5098C436.151 84.545 437.156 85.5303 438.27 86.4178C439.339 87.2161 440.504 87.8825 441.73 88.2683C442.473 88.4911 443.222 88.6407 443.919 88.6485C444.241 88.6521 444.55 88.6253 444.841 88.5626C445.843 88.4077 446.853 87.8304 447.772 87.1032C448.816 86.2596 449.685 85.1527 450.42 83.961C451.208 82.623 451.826 81.2285 452.214 79.8604C452.601 78.4924 452.757 77.1508 452.66 75.8891C452.584 74.3804 452.146 72.9414 451.554 71.6377C450.963 70.334 450.217 69.1656 449.457 68.1569C448.431 66.8315 447.373 65.8365 446.385 65.1594C445.439 64.3598 444.577 63.9177 443.93 63.6815C443.282 63.4453 442.839 63.393 442.687 63.314C442.681 63.2505 442.681 63.2502 442.681 63.2502C442.681 63.2502 442.681 63.2499 442.674 63.1865C442.812 63.077 443.29 62.9078 444.111 62.8203C444.521 62.7765 445.016 62.7572 445.578 62.7926C446.14 62.828 446.77 62.9188 447.429 63.0918C448.126 63.356 448.866 63.7221 449.614 64.203C450.363 64.6839 451.12 65.2802 451.847 65.9841C452.932 67.0082 454.02 68.2898 454.937 69.8586C455.854 71.4275 456.6 73.2846 456.928 75.4153C457.17 77.2008 457.099 79.076 456.708 80.9437C456.317 82.8115 455.607 84.6713 454.619 86.3989C453.729 88.0118 452.54 89.5825 450.986 90.926C449.598 92.1423 447.831 93.1078 445.769 93.5264C445.145 93.635 444.523 93.6875 443.909 93.6889C442.578 93.692 441.311 93.4555 440.159 93.055C438.288 92.4224 436.636 91.459 435.229 90.3275C433.736 89.1841 432.424 87.7799 431.419 86.2105C430.414 84.641 429.718 82.9067 429.401 81.0992C429.059 78.7676 429.338 76.6083 429.869 74.739C430.51 72.4214 431.517 70.4309 432.639 68.7996C432.639 68.7996 432.639 68.7996 432.639 68.7996C433.323 67.7949 434.069 66.913 434.831 66.1684C435.593 65.4238 436.37 64.8161 437.121 64.3365C437.904 63.8311 438.671 63.4792 439.359 63.2504C440.047 63.0217 440.655 62.9147 441.149 62.8822C441.643 62.8497 442.024 62.8904 442.28 62.9623C442.536 63.0342 442.669 63.1364 442.681 63.2502L442.681 63.2502Z" fill="#ffffff"/>
<path fill-rule="evenodd" clip-rule="evenodd" d="M68.7082 122.974C68.231 123.003 67.4239 117.211 66.416 107.101C66.3226 105.137 66.2659 103.002 66.2956 100.708C66.3253 98.4144 66.4411 95.9621 66.7176 93.3684C66.9078 91.4947 67.1787 89.5058 67.658 87.4588C68.1373 85.4118 68.825 83.3065 69.8927 81.2274C71.5498 78.0747 73.7045 75.0316 76.2991 72.1846C78.8937 69.3376 81.9283 66.687 85.2632 64.3071C85.2632 64.3071 85.2632 64.3071 85.2632 64.3071C91.2347 60.0278 98.1764 56.4748 105.646 53.6111C111.393 51.4067 117.496 49.7685 123.746 48.4495C125.715 48.0332 127.702 47.6471 129.705 47.2889C134.791 46.3793 139.82 45.677 144.746 45.1047C152.78 44.1713 160.56 43.5729 167.971 43.188C175.383 42.8031 182.424 42.6309 188.989 42.5734C203.873 42.4419 216.334 42.93 225.233 43.516C229.946 43.8263 233.662 44.1697 236.214 44.4918C238.833 44.8353 240.227 45.1309 240.217 45.3657C240.217 45.3662 240.217 45.3662 240.217 45.3662C240.217 45.3662 240.217 45.3662 240.217 45.3668C240.202 45.6013 238.785 45.7603 236.151 45.8484C233.587 45.9468 229.87 46.0021 225.165 46.0609C216.277 46.1719 203.869 46.2754 189.089 46.8372C182.568 47.0856 175.587 47.416 168.258 47.9205C160.928 48.425 153.25 49.1044 145.34 50.0753C140.491 50.6707 135.56 51.3745 130.594 52.2622C128.638 52.6118 126.701 52.9858 124.784 53.3868C118.691 54.6648 112.833 56.1883 107.389 58.2203C100.188 60.9111 93.5605 64.1535 87.8888 68.051C87.8888 68.051 87.8888 68.051 87.8888 68.051C84.7409 70.2239 81.8733 72.5945 79.4194 75.1209C76.9656 77.6473 74.9254 80.3294 73.3517 83.1132C72.3913 84.7609 71.7407 86.5487 71.246 88.3653C70.7512 90.1819 70.4125 92.0273 70.119 93.8184C69.7318 96.2538 69.4925 98.5893 69.33 100.796C69.1675 103.003 69.0821 105.081 69.027 107.008C69.2712 117.101 69.1853 122.944 68.7081 122.973L68.7082 122.974Z" fill="#ffffff"/>
<path fill-rule="evenodd" clip-rule="evenodd" d="M107.451 58.2354C108.836 58.0876 110.884 66.6153 112.021 77.2704C113.158 87.9254 112.957 96.693 111.571 96.8408C110.186 96.9886 108.138 88.461 107.001 77.8059C105.864 67.1508 106.065 58.3833 107.451 58.2354Z" fill="#ffffff"/>
<path fill-rule="evenodd" clip-rule="evenodd" d="M237.467 47.5837C238.379 46.5302 243.48 49.4594 248.852 54.1221C254.223 58.7848 257.842 63.424 256.929 64.4775C256.017 65.531 250.916 62.6017 245.544 57.9391C240.173 53.2764 236.554 48.6372 237.467 47.5837Z" fill="#ffffff"/>
<path fill-rule="evenodd" clip-rule="evenodd" d="M67.4038 87.0395C68.776 87.2824 68.2773 96.6152 66.2908 107.872C64.3042 119.128 61.5782 128.067 60.206 127.824C58.8338 127.581 59.3325 118.248 61.3191 106.992C63.3056 95.7351 66.0316 86.7966 67.4038 87.0395Z" fill="#ffffff"/>
<path fill-rule="evenodd" clip-rule="evenodd" d="M63.5815 200.811C63.4621 199.421 84.2148 196.505 109.904 194.3C135.594 192.096 156.54 191.434 156.66 192.824C156.779 194.213 136.027 197.13 110.337 199.335C84.6473 201.539 63.7009 202.2 63.5815 200.811Z" fill="#ffffff"/>
<path fill-rule="evenodd" clip-rule="evenodd" d="M81.3346 196.517C81.1935 196.569 80.8757 196.135 80.3934 195.254C79.9111 194.373 79.2615 193.047 78.4707 191.306C77.68 189.565 76.7443 187.41 75.7548 184.843C74.7652 182.277 73.7182 179.299 72.8266 175.872C72.0997 172.969 71.547 169.71 71.4241 166.174C71.3012 162.638 71.6078 158.824 72.695 154.893C76.8241 149.681 81.7777 144.365 87.5133 139.211C93.2489 134.057 99.7661 129.068 106.874 124.448C110.299 122.246 113.861 120.125 117.544 118.101C127.392 112.685 137.338 108.379 146.813 104.981C153.897 102.439 160.736 100.391 167.145 98.792C173.554 97.1934 179.534 96.0431 184.915 95.2427C191.097 94.3228 196.505 93.8857 200.888 93.7817C204.903 93.685 208.077 93.8664 210.216 94.1438C212.355 94.4213 213.467 94.7592 213.448 94.9812C213.429 95.2032 212.285 95.2966 210.173 95.432C209.117 95.4998 207.818 95.5828 206.294 95.7091C204.769 95.8355 203.018 96.0065 201.057 96.2318C196.787 96.7247 191.541 97.5119 185.525 98.7278C180.287 99.7868 174.475 101.156 168.245 102.925C162.015 104.694 155.367 106.864 148.467 109.474C139.243 112.966 129.57 117.254 119.975 122.528C116.387 124.501 112.914 126.554 109.57 128.675C102.722 132.97 96.4251 137.568 90.8428 142.316C85.2604 147.064 80.3932 151.962 76.267 156.79C75.2479 160.014 74.9149 163.279 74.9488 166.392C74.9826 169.506 75.3838 172.468 75.9262 175.169C76.5636 178.491 77.3658 181.455 78.1097 184.052C78.8536 186.649 79.5428 188.878 80.08 190.707C80.6173 192.535 81.0066 193.962 81.2204 194.944C81.4343 195.927 81.4757 196.465 81.3346 196.517L81.3346 196.517Z" fill="#ffffff"/>
<path fill-rule="evenodd" clip-rule="evenodd" d="M66.0323 249.441C66.06 248.887 67.55 248.448 70.0115 248.156C70.8836 247.977 71.8431 247.782 72.7497 247.428C73.4255 247.122 74.0267 246.898 74.097 246.599C74.7098 245.862 75.2101 244.878 75.6716 243.734C76.1382 242.546 76.4887 241.202 76.7882 239.741C76.9123 239.139 77.0235 238.523 77.1231 237.895C77.5436 235.243 77.7233 232.621 77.8729 230.197C77.8258 226.565 77.9399 223.456 78.194 221.23C78.448 219.005 78.8421 217.664 79.3576 217.603L79.3576 217.603C79.3611 217.602 79.3611 217.602 79.3611 217.602C79.3611 217.602 79.3611 217.602 79.3646 217.602C79.3646 217.602 79.3646 217.602 79.3646 217.602C79.8808 217.552 80.446 218.796 80.9927 220.991C81.5394 223.186 82.0676 226.333 82.5075 230.057C82.631 232.646 82.5821 235.57 82.1054 238.643C81.9925 239.37 81.858 240.089 81.7014 240.796C81.3243 242.492 80.7781 244.154 80.0383 245.68C79.3291 247.168 78.35 248.541 77.1706 249.626C75.8735 250.717 74.612 251.072 73.6121 251.155C72.1811 251.342 70.9684 251.265 69.9694 251.126C67.4531 250.583 66.0049 249.996 66.0326 249.441L66.0323 249.441ZM65.1795 207.935C65.4388 207.891 65.8793 208.973 66.4839 211.019C66.7861 212.042 67.1299 213.306 67.502 214.796C67.874 216.287 68.2751 218.003 68.6696 219.939C69.0499 221.799 69.4323 223.863 69.7511 226.124C70.0699 228.385 70.3255 230.843 70.409 233.49C70.473 235.501 70.4279 237.642 70.1266 239.886C69.8863 241.72 69.4431 243.661 68.5996 245.594C67.8881 247.238 66.8075 248.847 65.2694 250.175C63.707 251.475 61.8226 252.33 59.8417 252.689C57.7242 253.095 55.4299 253.01 53.2049 252.267C51.137 251.541 49.3102 250.332 47.815 248.852C46.1833 247.246 44.8609 245.4 43.7759 243.484C42.566 241.364 41.5793 239.128 40.7423 236.858C40.6134 236.509 40.4874 236.158 40.3642 235.806C38.7129 231.09 37.6342 226.37 36.7877 221.836C35.8778 216.984 35.2481 212.302 34.6932 207.876C34.1888 203.862 33.7569 199.995 33.5211 196.326L33.5211 196.326C33.3723 194.036 33.293 191.815 33.3101 189.689C33.3273 187.563 33.4407 185.532 33.6531 183.618C33.8721 181.505 34.2361 179.476 34.7816 177.66C35.3271 175.844 36.0518 174.239 36.8982 172.891C36.8982 172.891 36.8982 172.891 36.8982 172.891C37.3977 172.099 37.9579 171.407 38.5396 170.828C39.1213 170.249 39.7244 169.782 40.3144 169.419C41.0163 168.993 41.6823 168.725 42.2687 168.551C42.8551 168.377 43.3627 168.298 43.7728 168.269C44.5931 168.21 45.02 168.332 45.0409 168.487C45.0619 168.642 44.6778 168.828 44.0022 169.156C43.6645 169.32 43.2544 169.523 42.8014 169.795C42.3483 170.067 41.8516 170.407 41.3643 170.853C40.9463 171.229 40.531 171.683 40.1377 172.223C39.7444 172.763 39.373 173.389 39.0396 174.089C38.4531 175.309 37.993 176.739 37.6819 178.381C37.3707 180.022 37.2105 181.876 37.1177 183.881C37.0491 185.68 37.0702 187.591 37.1756 189.607C37.2809 191.624 37.4705 193.745 37.7145 195.961C37.7145 195.961 37.7145 195.961 37.7145 195.961C38.1065 199.493 38.674 203.253 39.294 207.228C39.9798 211.616 40.6985 216.205 41.6473 220.889C42.5413 225.286 43.5908 229.767 45.126 234.134C45.2405 234.46 45.3574 234.784 45.4768 235.106C46.2513 237.195 47.1115 239.184 48.1385 241.004C49.072 242.644 50.092 244.135 51.2911 245.323C52.3716 246.384 53.5624 247.24 54.8104 247.675C56.1053 248.166 57.5934 248.239 59.0209 248.021C60.2809 247.81 61.4619 247.344 62.3469 246.626C63.2746 245.92 64.0055 244.872 64.581 243.732C65.27 242.352 65.6799 240.801 65.9783 239.228C66.3359 237.305 66.4744 235.375 66.5298 233.498C66.6021 231.022 66.5155 228.669 66.3764 226.47C66.2372 224.271 66.0451 222.226 65.8635 220.363C65.6746 218.432 65.4858 216.695 65.3335 215.174C65.1811 213.653 65.0646 212.348 64.9969 211.282C64.8615 209.151 64.9203 207.979 65.1795 207.935Z" fill="#ffffff"/>
<path fill-rule="evenodd" clip-rule="evenodd" d="M223.319 243.892C223.321 243.281 226.372 242.734 231.415 242.318C233.296 242.054 235.427 241.744 237.637 241.147C238.439 240.911 239.236 240.681 239.956 240.401C240.675 240.122 241.317 239.793 241.793 239.337C243.34 238.046 244.732 236.343 245.918 234.367C247.074 232.436 248.01 230.229 248.786 227.856C248.799 227.816 248.812 227.776 248.825 227.736C249.663 225.148 250.244 222.541 250.675 219.994C251.105 217.448 251.385 214.963 251.598 212.616C252.079 207.21 252.149 202.552 252.257 199.165C252.314 197.357 252.375 195.915 252.485 194.904C252.542 194.386 252.611 193.983 252.697 193.703C252.741 193.561 252.789 193.451 252.843 193.374C252.87 193.335 252.898 193.305 252.927 193.282C252.974 193.266 252.998 193.256 253.01 193.25C253.021 193.243 253.022 193.241 253.022 193.241C253.022 193.241 253.022 193.241 253.022 193.241C253.022 193.241 253.022 193.241 253.022 193.241C253.022 193.241 253.022 193.243 253.036 193.246C253.049 193.249 253.074 193.251 253.124 193.253C253.159 193.266 253.195 193.287 253.231 193.318C253.305 193.378 253.382 193.472 253.462 193.598C253.621 193.849 253.793 194.229 253.97 194.727C254.316 195.701 254.686 197.132 255.022 198.952C255.653 202.361 256.193 207.158 256.099 212.851C256.099 212.851 256.099 212.851 256.099 212.851C256.062 215.317 255.905 217.967 255.529 220.733C255.153 223.499 254.557 226.381 253.631 229.284C253.616 229.329 253.602 229.374 253.587 229.419C252.723 232.098 251.568 234.665 250.103 236.965C248.594 239.34 246.706 241.391 244.595 242.945C243.523 243.692 242.439 244.182 241.402 244.52C240.365 244.858 239.375 245.044 238.471 245.163C235.834 245.573 233.485 245.602 231.489 245.532C226.372 245.075 223.317 244.503 223.319 243.892ZM162.84 181.029C162.634 181.058 162.187 179.493 161.654 176.483C161.387 174.978 161.102 173.111 160.845 170.9C160.587 168.69 160.356 166.135 160.219 163.256C160.086 160.505 160.033 157.449 160.182 154.123C160.331 150.796 160.681 147.198 161.425 143.388C161.961 140.6 162.732 137.667 163.902 134.732C165.072 131.798 166.641 128.862 168.823 126.139C170.71 123.805 173.07 121.708 175.863 120.104C178.768 118.447 182.057 117.364 185.485 116.871C189.103 116.338 192.948 116.389 196.766 117.281C200.133 118.08 203.391 119.528 206.346 121.521C209.284 123.52 211.911 125.967 214.244 128.721C216.577 131.474 218.617 134.534 220.394 137.723C224.029 144.19 226.789 151.304 228.998 158.672C230.911 165.041 232.429 171.643 233.651 178.382C233.983 180.21 234.293 182.052 234.575 183.908C235.273 188.501 235.788 193.087 236.074 197.647C236.534 204.868 236.416 212.094 235.238 219.071C234.688 222.427 233.848 225.77 232.625 228.941C231.403 232.111 229.798 235.109 227.738 237.797C225.669 240.465 223.136 242.719 220.295 244.407C217.047 246.32 213.52 247.461 210.025 248.009C205.94 248.666 201.792 248.593 197.883 247.693C194.152 246.82 190.746 245.207 187.812 243.146C184.636 240.909 182.014 238.225 179.83 235.43C177.308 232.206 175.324 228.841 173.682 225.55C171.584 221.344 170.006 217.25 168.746 213.401C167.486 209.553 166.544 205.95 165.789 202.676C165.005 199.28 164.427 196.224 163.989 193.558C163.551 190.891 163.252 188.612 163.05 186.76C162.646 183.056 162.612 181.062 162.84 181.03C163.067 180.997 163.543 182.93 164.361 186.541C164.77 188.347 165.269 190.571 165.897 193.171C166.525 195.771 167.283 198.745 168.234 202.041C169.153 205.221 170.241 208.706 171.618 212.396C172.994 216.086 174.658 219.982 176.796 223.93C178.466 227.014 180.418 230.121 182.821 233.02C184.902 235.526 187.311 237.887 190.129 239.763C192.712 241.487 195.665 242.814 198.822 243.481C202.129 244.193 205.708 244.176 209.284 243.557C212.298 243.022 215.276 242.025 217.899 240.412C220.199 239.012 222.266 237.118 223.961 234.889C225.697 232.638 227.041 230.04 228.078 227.222C229.116 224.403 229.846 221.365 230.372 218.258C231.436 211.776 231.5 204.94 231.053 197.967C230.768 193.573 230.262 189.135 229.582 184.667C229.308 182.862 229.008 181.067 228.686 179.281C227.495 172.688 226.041 166.264 224.219 160.098C222.102 152.953 219.539 146.161 216.178 140.076C214.514 137.09 212.678 134.255 210.623 131.743C208.568 129.231 206.293 127.041 203.765 125.308C201.264 123.574 198.524 122.295 195.717 121.586C192.54 120.771 189.23 120.675 186.056 121.066C183.087 121.443 180.267 122.288 177.824 123.619C175.469 124.891 173.422 126.622 171.748 128.574C169.77 130.856 168.304 133.438 167.163 136.086C166.022 138.734 165.207 141.449 164.58 144.069C163.733 147.657 163.254 151.099 162.96 154.312C162.666 157.525 162.559 160.51 162.523 163.216C162.487 166.045 162.537 168.572 162.609 170.769C162.682 172.966 162.777 174.833 162.851 176.348C162.998 179.379 163.045 181 162.84 181.03L162.84 181.029Z" fill="#ffffff"/>
<path fill-rule="evenodd" clip-rule="evenodd" d="M407.581 209.816C407.583 209.792 407.588 209.769 407.598 209.746C407.606 209.724 407.619 209.702 407.635 209.68C407.666 209.637 407.711 209.595 407.77 209.554C407.885 209.474 408.052 209.397 408.267 209.323C408.683 209.18 409.28 209.048 410.039 208.916C411.419 208.677 413.33 208.449 415.628 208.121C417.521 207.849 419.662 207.535 421.873 206.946C422.676 206.71 423.47 206.483 424.182 206.21C424.894 205.937 425.525 205.618 425.989 205.175C428.081 203.451 430.001 201.211 431.566 198.581C432.185 197.539 432.73 196.47 433.203 195.395C434.867 191.673 435.69 187.829 436.185 184.407C436.223 180.386 436.374 177.012 436.623 174.616C436.873 172.221 437.222 170.804 437.661 170.743C437.661 170.743 437.661 170.743 437.661 170.743C437.663 170.743 437.663 170.743 437.663 170.743C437.663 170.743 437.663 170.743 437.666 170.743C438.105 170.692 438.581 172.011 439.054 174.406C439.526 176.801 439.994 180.274 440.415 184.488C440.357 186.4 440.163 188.473 439.756 190.642C439.349 192.811 438.727 195.076 437.813 197.348C437.284 198.64 436.65 199.924 435.906 201.171C434.027 204.32 431.593 206.976 428.924 208.955C427.846 209.712 426.754 210.212 425.71 210.557C424.666 210.903 423.669 211.093 422.759 211.213C420.144 211.627 417.8 211.655 415.801 211.578C413.362 211.487 411.39 211.219 409.991 210.914C409.222 210.746 408.624 210.564 408.217 210.382C408.006 210.288 407.845 210.193 407.738 210.099C407.684 210.052 407.644 210.005 407.617 209.958C407.604 209.935 407.594 209.911 407.588 209.888C407.582 209.864 407.58 209.84 407.581 209.816L407.581 209.816ZM413.628 176.784C413.951 176.765 414.348 177.885 414.683 179.982C414.851 181.03 415 182.323 415.086 183.839C415.172 185.356 415.195 187.095 415.084 189.033C415.084 189.033 415.084 189.033 415.084 189.033C414.993 190.669 414.801 192.455 414.425 194.349C414.048 196.244 413.488 198.247 412.633 200.291C411.291 203.49 409.125 206.726 405.941 209.278C402.678 211.838 398.602 213.498 394.332 214.197C393.509 214.339 392.672 214.451 391.826 214.531C387.975 214.895 384.118 214.55 380.573 213.451C376.309 212.096 372.735 209.719 369.968 207.039C368.233 205.355 366.793 203.586 365.582 201.843C364.371 200.1 363.387 198.383 362.573 196.768C361.623 194.89 360.892 193.146 360.321 191.595C359.749 190.044 359.339 188.685 359.053 187.562C358.482 185.316 358.394 184.019 358.714 183.906C359.034 183.793 359.736 184.876 360.838 186.854C361.388 187.844 362.043 189.056 362.826 190.437C363.609 191.818 364.52 193.368 365.604 195.019C366.536 196.435 367.592 197.928 368.808 199.414C370.025 200.9 371.401 202.379 372.987 203.737C375.484 205.88 378.54 207.75 381.998 208.733C384.867 209.575 388.065 209.799 391.351 209.492C392.074 209.424 392.792 209.332 393.503 209.218C395.306 208.912 397.047 208.454 398.65 207.83C400.253 207.205 401.719 206.414 402.995 205.452C405.517 203.603 407.386 201.064 408.688 198.482C409.533 196.808 410.151 195.097 410.632 193.433C411.114 191.769 411.459 190.152 411.733 188.643C412.054 186.854 412.268 185.214 412.436 183.765C412.605 182.316 412.728 181.058 412.845 180.026C413.08 177.962 413.304 176.803 413.628 176.784L413.628 176.784Z" fill="#ffffff"/>
</svg>
