<?xml version="1.0" encoding="utf-8"?>
<!-- Generator: Adobe Illustrator 19.0.0, SVG Export Plug-In . SVG Version: 6.00 Build 0)  -->
<svg xmlns="http://www.w3.org/2000/svg" xmlns:xlink="http://www.w3.org/1999/xlink" version="1.1" id="Layer_1" x="0px" y="0px" viewBox="0 2 98 98" style="enable-background:new 0 2 98 98;" xml:space="preserve" width="512" height="512">
<style type="text/css">
	.st0{fill:url(#SVGID_1_);}
	.st1{fill:url(#SVGID_2_);}
	.st2{fill:url(#SVGID_3_);}
</style>
<g>
	
		<linearGradient id="SVGID_1_" gradientUnits="userSpaceOnUse" x1="36.3" y1="94.6667" x2="36.3" y2="1.9401" gradientTransform="matrix(1 0 0 -1 0 104)">
		<stop offset="0" style="stop-color:#00EFD1"/>
		<stop offset="1" style="stop-color:#00ACEA"/>
	</linearGradient>
	<path class="st0" d="M36.3,76.3c-5.4,0-9.8,4.4-9.8,9.8s4.4,9.8,9.8,9.8s9.8-4.4,9.8-9.8C46.1,80.7,41.7,76.3,36.3,76.3z    M36.3,89.9c-2.1,0-3.8-1.7-3.8-3.8s1.7-3.8,3.8-3.8s3.8,1.7,3.8,3.8S38.4,89.9,36.3,89.9z"/>
	
		<linearGradient id="SVGID_2_" gradientUnits="userSpaceOnUse" x1="71.9" y1="94.6667" x2="71.9" y2="1.9401" gradientTransform="matrix(1 0 0 -1 0 104)">
		<stop offset="0" style="stop-color:#00EFD1"/>
		<stop offset="1" style="stop-color:#00ACEA"/>
	</linearGradient>
	<path class="st1" d="M71.9,76.3c-5.4,0-9.8,4.4-9.8,9.8s4.4,9.8,9.8,9.8s9.8-4.4,9.8-9.8C81.7,80.7,77.3,76.3,71.9,76.3z    M71.9,89.9c-2.1,0-3.8-1.7-3.8-3.8s1.7-3.8,3.8-3.8s3.8,1.7,3.8,3.8S74,89.9,71.9,89.9z"/>
	
		<linearGradient id="SVGID_3_" gradientUnits="userSpaceOnUse" x1="48.9958" y1="94.6667" x2="48.9958" y2="1.9401" gradientTransform="matrix(1 0 0 -1 0 104)">
		<stop offset="0" style="stop-color:#00EFD1"/>
		<stop offset="1" style="stop-color:#00ACEA"/>
	</linearGradient>
	<path class="st2" d="M81.3,57.4l8.1-25.2c0.3-0.9,0.1-1.9-0.4-2.7c-0.6-0.8-1.5-1.2-2.4-1.2H28.2L26,14.6c-0.2-1.3-1.2-2.3-2.4-2.5   l-11.6-2c-1.6-0.2-3.2,0.9-3.5,2.5s0.8,3.2,2.4,3.5l9.4,1.6L29,70.8c0.2,1.5,1.5,2.5,3,2.5h46.7c1.7,0,3-1.3,3-3s-1.3-3-3-3H34.6   l-1.3-7.8h45.1C79.7,59.5,80.9,58.7,81.3,57.4z M32.3,53.5l-3.1-19.2h53.2l-6.2,19.2H32.3z"/>
</g>
</svg>
